<?xml version="1.0" encoding="utf-8"?>
<svg version="1.1" id="Capa_1" xmlns="http://www.w3.org/2000/svg" xmlns:xlink="http://www.w3.org/1999/xlink" x="0px" y="0px"
	 viewBox="0 0 231.5 190.6" style="enable-background:new 0 0 231.5 190.6;" xml:space="preserve">
<g fill="#2a3c79">
	<path d="M107.4,104.9c0.4,3.9,3.7,6.7,7.5,6.7c0.3,0,0.5,0,0.8,0c4.1-0.4,7.1-4.1,6.7-8.2l-3.5-33.5c-0.4-4.1-4.1-7.1-8.2-6.7
		c-4.1,0.4-7.1,4.1-6.7,8.2L107.4,104.9z"/>
	<path d="M154.4,111.6c0.3,0,0.5,0,0.8,0c3.8,0,7.1-2.9,7.5-6.7l3.5-33.5c0.4-4.1-2.6-7.8-6.7-8.2c-4.1-0.4-7.8,2.6-8.2,6.7
		l-3.5,33.5C147.2,107.5,150.2,111.2,154.4,111.6z"/>
	<path d="M96.3,144.2c-12.8,0-23.2,10.4-23.2,23.2c0,12.8,10.4,23.2,23.2,23.2s23.2-10.4,23.2-23.2
		C119.5,154.6,109.1,144.2,96.3,144.2z M96.3,175.6c-4.5,0-8.2-3.7-8.2-8.2c0-4.5,3.7-8.2,8.2-8.2s8.2,3.7,8.2,8.2
		C104.5,171.9,100.8,175.6,96.3,175.6z"/>
	<path d="M173.7,144.2c-12.8,0-23.2,10.4-23.2,23.2c0,12.8,10.4,23.2,23.2,23.2s23.2-10.4,23.2-23.2
		C196.9,154.6,186.5,144.2,173.7,144.2z M173.7,175.6c-4.5,0-8.2-3.7-8.2-8.2c0-4.5,3.7-8.2,8.2-8.2c4.5,0,8.2,3.7,8.2,8.2
		C181.9,171.9,178.3,175.6,173.7,175.6z"/>
	<path d="M218.6,38.2c-1.4-1.8-3.6-2.9-5.9-2.9H63.2l-6.3-24.1C56,7.8,53,5.5,49.6,5.5H18.9c-4.1,0-7.5,3.4-7.5,7.5s3.4,7.5,7.5,7.5
		h24.9L50,44.5c0,0.1,0.1,0.3,0.1,0.4l23.2,89c0.9,3.3,3.8,5.6,7.3,5.6h108.9c3.4,0,6.4-2.3,7.3-5.6l23.2-89.2
		C220.5,42.4,220,40,218.6,38.2z M183.6,124.5H86.4L67.1,50.3h135.9L183.6,124.5z"/>
</g>
</svg>
